<?xml version="1.0" standalone="no"?>
<!DOCTYPE svg PUBLIC "-//W3C//DTD SVG 20010904//EN"
 "http://www.w3.org/TR/2001/REC-SVG-20010904/DTD/svg10.dtd">
<svg version="1.0" xmlns="http://www.w3.org/2000/svg"
 width="512.000000pt" height="512.000000pt" viewBox="0 0 512.000000 512.000000"
 preserveAspectRatio="xMidYMid meet">
<metadata>
Created by potrace 1.14, written by Peter Selinger 2001-2017
</metadata>
<g transform="translate(0.000000,512.000000) scale(0.100000,-0.100000)"
fill="#000000" stroke="none">
<path d="M0 2560 l0 -2560 2560 0 2560 0 0 2560 0 2560 -2560 0 -2560 0 0
-2560z m2050 1025 c9 -23 24 -31 80 -38 22 -2 19 -6 -28 -32 -87 -49 -212
-144 -283 -214 -70 -71 -165 -196 -214 -283 -26 -47 -30 -50 -32 -28 -7 56
-15 71 -38 80 -23 9 -25 15 -25 73 0 57 38 299 58 372 10 34 17 36 202 70 69
13 158 24 198 24 68 1 73 0 82 -24z m1295 0 c193 -34 197 -36 207 -71 20 -72
58 -314 58 -371 0 -58 -2 -64 -25 -73 -23 -9 -31 -24 -38 -80 -2 -22 -6 -19
-32 28 -49 87 -144 212 -214 283 -71 70 -196 165 -283 214 -47 26 -50 30 -28
32 56 7 71 15 80 38 9 23 15 25 73 25 34 0 125 -11 202 -25z m-692 -570 c189
-40 334 -192 367 -384 41 -246 -136 -488 -389 -531 -246 -41 -488 136 -531
389 -40 236 124 474 363 526 81 18 108 18 190 0z m-1031 -939 c33 -63 127
-187 197 -257 70 -70 196 -165 283 -214 47 -26 50 -30 28 -32 -56 -7 -71 -15
-80 -38 -9 -23 -15 -25 -73 -25 -57 0 -299 38 -371 58 -21 6 -32 17 -38 38
-20 72 -58 314 -58 371 0 58 2 64 24 72 27 11 36 29 36 74 1 31 1 31 16 12 9
-11 25 -37 36 -59z m1934 6 c2 -12 16 -27 29 -32 23 -9 25 -15 25 -73 0 -57
-38 -299 -58 -371 -6 -21 -17 -32 -38 -38 -72 -20 -314 -58 -371 -58 -58 0
-64 2 -73 25 -9 23 -24 31 -80 38 -22 2 -19 6 28 32 87 49 212 144 283 214 70
71 165 196 214 283 26 47 30 50 32 28 2 -14 6 -35 9 -48z"/>
</g>
</svg>
